<svg width="18" height="19" viewBox="0 0 18 19" fill="none" xmlns="http://www.w3.org/2000/svg">
  <path
      d="M8.99998 15.5002H15.75M2.25 15.5002H3.50591C3.87279 15.5002 4.05624 15.5002 4.22887 15.4587C4.38192 15.422 4.52824 15.3614 4.66245 15.2791C4.81382 15.1864 4.94354 15.0567 5.20296 14.7972L14.625 5.37517C15.2463 4.75385 15.2463 3.74649 14.625 3.12517C14.0037 2.50385 12.9963 2.50385 12.375 3.12517L2.95295 12.5472C2.69352 12.8067 2.5638 12.9364 2.47104 13.0877C2.3888 13.2219 2.32819 13.3683 2.29145 13.5213C2.25 13.694 2.25 13.8774 2.25 14.2443V15.5002Z"
      stroke="currentColor" stroke-width="1.5" stroke-linecap="round" stroke-linejoin="round"/>
</svg>
