<svg width="20" height="21" viewBox="0 0 20 21" fill="none" xmlns="http://www.w3.org/2000/svg">
  <path
      d="M11.6654 9.6665H6.66536M8.33203 12.9998H6.66536M13.332 6.33317H6.66536M16.6654 6.1665V14.8332C16.6654 16.2333 16.6654 16.9334 16.3929 17.4681C16.1532 17.9386 15.7707 18.321 15.3003 18.5607C14.7656 18.8332 14.0655 18.8332 12.6654 18.8332H7.33203C5.9319 18.8332 5.23183 18.8332 4.69705 18.5607C4.22665 18.321 3.8442 17.9386 3.60451 17.4681C3.33203 16.9334 3.33203 16.2333 3.33203 14.8332V6.1665C3.33203 4.76637 3.33203 4.06631 3.60451 3.53153C3.8442 3.06112 4.22665 2.67867 4.69705 2.43899C5.23183 2.1665 5.9319 2.1665 7.33203 2.1665H12.6654C14.0655 2.1665 14.7656 2.1665 15.3003 2.43899C15.7707 2.67867 16.1532 3.06112 16.3929 3.53153C16.6654 4.06631 16.6654 4.76637 16.6654 6.1665Z"
      stroke="currentColor" stroke-width="1.67" stroke-linecap="round" stroke-linejoin="round"/>
</svg>
