<svg width="18" height="19" viewBox="0 0 18 19" fill="none" xmlns="http://www.w3.org/2000/svg">
  <g clip-path="url(#clip0_28014_31751)">
    <path
        d="M9.75 5.75L8.91334 4.07669C8.67255 3.5951 8.55215 3.3543 8.37253 3.17837C8.21368 3.0228 8.02224 2.90448 7.81206 2.83198C7.57437 2.75 7.30515 2.75 6.76672 2.75H3.9C3.05992 2.75 2.63988 2.75 2.31901 2.91349C2.03677 3.0573 1.8073 3.28677 1.66349 3.56901C1.5 3.88988 1.5 4.30992 1.5 5.15V5.75M1.5 5.75H12.9C14.1601 5.75 14.7902 5.75 15.2715 5.99523C15.6948 6.21095 16.039 6.55516 16.2548 6.97852C16.5 7.45982 16.5 8.08988 16.5 9.35V12.65C16.5 13.9101 16.5 14.5402 16.2548 15.0215C16.039 15.4448 15.6948 15.789 15.2715 16.0048C14.7902 16.25 14.1601 16.25 12.9 16.25H5.1C3.83988 16.25 3.20982 16.25 2.72852 16.0048C2.30516 15.789 1.96095 15.4448 1.74524 15.0215C1.5 14.5402 1.5 13.9101 1.5 12.65V5.75Z"
        stroke="currentColor" stroke-width="1.5" stroke-linecap="round" stroke-linejoin="round"/>
  </g>
  <defs>
    <clipPath id="clip0_28014_31751">
      <rect width="18" height="18" fill="white" transform="translate(0 0.5)"/>
    </clipPath>
  </defs>
</svg>
