<svg width="49" height="40" viewBox="0 0 49 40" fill="none" xmlns="http://www.w3.org/2000/svg">
<path d="M44.0685 20.9627V19.9638C44.0685 19.7583 44.0077 19.573 43.9035 19.4224C43.6371 19.0287 43.0928 18.8637 42.6325 19.1329L38.6053 21.4549C38.475 22.0339 38.5792 22.6216 38.5242 23.2036V26.7038C38.53 27.1005 38.5242 27.5 38.5502 27.8967C38.5705 28.2325 38.4576 28.2701 38.1912 28.108C37.5572 27.7114 36.9029 27.3408 36.2891 26.9152C35.9938 26.7125 35.794 26.7531 35.6261 27.0078C35.0355 27.9025 34.4564 28.8087 33.889 29.7177C33.5618 30.2476 33.2578 30.789 32.8149 31.258C32.9046 29.3356 32.7801 27.4219 32.8728 25.5081C32.8641 25.3778 32.893 24.9841 32.8988 24.7409L32.7338 24.8364L25.0644 29.2574C24.4709 29.599 23.7413 29.599 23.1449 29.2574L12.7685 23.2759L5.57978 19.1329C5.07891 18.8434 4.47961 19.0634 4.2422 19.5296C4.17851 19.6569 4.14087 19.8046 4.14087 19.9638V17.0455L23.1768 28.0993C23.7269 28.4178 24.4072 28.4178 24.9544 28.0993L44.1553 16.9557L44.0685 20.9627Z" fill="#4AB969"/>
<path d="M43.9035 19.4281C43.6371 19.0344 43.0928 18.8694 42.6325 19.1386L38.6053 21.4606C38.475 22.0396 38.5792 22.6273 38.5242 23.2093V26.7096C38.53 27.1062 38.5242 27.5057 38.5503 27.9024C38.5705 28.2382 38.4576 28.2759 38.1912 28.1137C37.5572 27.7171 36.9029 27.3465 36.2891 26.9209C35.9938 26.7182 35.794 26.7588 35.6261 27.0136C35.0355 27.9082 34.4564 28.8144 33.889 29.7235C33.5618 30.2533 33.2578 30.7947 32.8149 31.2637C32.9046 29.3413 32.7801 27.4276 32.8728 25.5138C32.8641 25.3836 32.893 24.9898 32.8988 24.7466L32.7338 24.8422L25.0644 29.2631C24.4709 29.6048 23.7413 29.6048 23.1449 29.2631L12.7685 23.2816L5.57978 19.1386C5.07891 18.8491 4.47961 19.0691 4.2422 19.5353C4.17851 19.6627 4.14087 19.8103 4.14087 19.9695V28.2266C4.14087 28.5683 4.32327 28.8839 4.62147 29.0576L7.46455 30.6933C7.49061 30.7136 7.51667 30.7281 7.53983 30.7455C7.57167 30.7628 7.60063 30.7773 7.63247 30.7947L9.45645 31.8456L9.45934 31.8485C9.46224 31.8514 9.46803 31.8514 9.47092 31.8543L10.1079 32.222L23.1449 39.7379C23.3997 39.8856 23.6834 39.9695 23.9672 39.9898C24.0627 39.9927 24.1525 39.9927 24.2451 39.9869C24.5288 39.9667 24.8068 39.8856 25.0644 39.7379L41.6423 30.178C42.0129 29.9638 42.3835 29.7495 42.757 29.5353L43.5879 29.0547C43.7587 28.9562 43.889 28.8115 43.9672 28.6435C44.0308 28.5162 44.0656 28.3714 44.0656 28.2237V19.9667C44.0656 19.7611 44.0048 19.5758 43.9006 19.4253L43.9035 19.4281Z" fill="#53448B"/>
<path d="M48.079 13.8537C48.5075 14.0997 48.5075 14.7164 48.079 14.9625L28.9939 25.8948L25.0246 28.1675C24.434 28.5062 23.7073 28.5062 23.1167 28.1675L13.6031 22.7187L3.35988 16.8531L1.29271 15.6689C0.00724673 14.9336 0.00724673 13.0777 1.29271 12.3395L3.31356 11.1814L22.4074 0.246241C22.998 -0.0924969 23.7247 -0.0924969 24.3153 0.246241L27.3668 1.99494C27.7953 2.24103 27.7953 2.85771 27.3668 3.1038L9.25739 13.4744C8.8289 13.7205 8.8289 14.3371 9.25739 14.5832L13.2412 16.8647C13.4381 16.9776 13.6812 16.9776 13.8752 16.8647L33.2904 5.74711C33.4873 5.6342 33.7305 5.6342 33.9273 5.74711L37.6158 7.8577C38.0443 8.1038 38.0443 8.72047 37.6158 8.96656L19.0171 19.618C18.8028 19.7396 18.8028 20.0494 19.0171 20.1739L23.7044 22.8606C23.9013 22.9735 24.1445 22.9735 24.3413 22.8606L43.7594 11.7373C43.9563 11.6244 44.1995 11.6244 44.3964 11.7373L48.0848 13.8508L48.079 13.8537Z" fill="#53448B"/>
</svg>
