<svg width="20" height="20" viewBox="0 0 20 20" fill="none" xmlns="http://www.w3.org/2000/svg">
  <path
      d="M9.9987 10.8332C10.4589 10.8332 10.832 10.4601 10.832 9.99984C10.832 9.5396 10.4589 9.1665 9.9987 9.1665C9.53846 9.1665 9.16536 9.5396 9.16536 9.99984C9.16536 10.4601 9.53846 10.8332 9.9987 10.8332Z"
      stroke="currentColor" stroke-width="1.66667" stroke-linecap="round" stroke-linejoin="round"/>
  <path
      d="M15.832 10.8332C16.2923 10.8332 16.6654 10.4601 16.6654 9.99984C16.6654 9.5396 16.2923 9.1665 15.832 9.1665C15.3718 9.1665 14.9987 9.5396 14.9987 9.99984C14.9987 10.4601 15.3718 10.8332 15.832 10.8332Z"
      stroke="currentColor" stroke-width="1.66667" stroke-linecap="round" stroke-linejoin="round"/>
  <path
      d="M4.16536 10.8332C4.6256 10.8332 4.9987 10.4601 4.9987 9.99984C4.9987 9.5396 4.6256 9.1665 4.16536 9.1665C3.70513 9.1665 3.33203 9.5396 3.33203 9.99984C3.33203 10.4601 3.70513 10.8332 4.16536 10.8332Z"
      stroke="currentColor" stroke-width="1.66667" stroke-linecap="round" stroke-linejoin="round"/>
</svg>
