<svg width="144" height="106" viewBox="0 0 144 106" fill="none" xmlns="http://www.w3.org/2000/svg">
  <path d="M120.995 51.7736C120.995 77.5785 99.9993 98.5665 74.1945 98.5665C48.3897 98.5665 27.3945 77.5785 27.3945 51.7736C27.3945 25.9617 48.3897 4.96648 74.1945 4.96648C99.9993 4.96648 120.995 25.9617 120.995 51.7736ZM44.254 97.6352C44.909 98.6606 44.5949 100.032 43.5696 100.687C42.5444 101.342 41.182 101.041 40.5271 100.016C39.8721 98.9908 40.1636 97.6146 41.1888 96.9597C42.2141 96.3047 43.5991 96.61 44.254 97.6352ZM33.4016 13.1716C33.9517 14.0328 33.6878 15.1844 32.8268 15.7345C31.9657 16.2846 30.8214 16.0324 30.2713 15.1713C29.7212 14.3102 29.966 13.1543 30.8271 12.6042C31.6882 12.0542 32.8515 12.3105 33.4016 13.1716Z" fill="#F3F4F7"/>
  <path d="M93.8961 21.2495V89.1702C93.8961 91.877 91.7017 94.0713 88.9949 94.0713H39.6433C36.9365 94.0713 34.7422 91.877 34.7422 89.1702V21.2495C34.7422 18.5426 36.9365 16.3483 40.3796 16.3483H89.7312C91.7017 16.3483 93.8961 18.5426 93.8961 21.2495Z" fill="#F9FAFD"/>
  <path d="M77.4055 12.8635V17.9091C77.4055 18.5587 76.8789 19.0852 76.2294 19.0852H52.4144C51.7649 19.0852 51.2383 18.5587 51.2383 17.9091V12.8635C51.2383 12.2139 51.7649 11.6874 52.4144 11.6874H56.9176L58.609 6.91402C58.8014 6.37094 59.3151 6.00798 59.8912 6.00798H68.7535C69.3292 6.00798 69.8426 6.37032 70.0354 6.91274L71.7325 11.6874H76.2294C76.8789 11.6874 77.4055 12.2139 77.4055 12.8635Z" fill="url(#paint0_linear_27450_72198)"/>
  <path d="M66.0744 9.97439C66.0744 10.9503 65.2862 11.7385 64.3229 11.7385C63.347 11.7385 62.5588 10.9503 62.5588 9.97439C62.5588 9.00478 63.347 8.22282 64.3229 8.22282C65.2862 8.22282 66.0744 9.00478 66.0744 9.97439ZM71.9245 16.2588H56.7194C56.5204 16.2588 56.3594 16.0978 56.3594 15.8988C56.3594 15.6998 56.5204 15.5388 56.7194 15.5388H71.9245C72.1234 15.5388 72.2845 15.6998 72.2845 15.8988C72.2845 16.0978 72.1234 16.2588 71.9245 16.2588Z" fill="white"/>
  <rect x="39.9297" y="32.3848" width="5.23636" height="1.30909" rx="0.654545" fill="#D3D6DD" fill-opacity="0.8"/>
  <path d="M74.2885 32.3848H57.9292C57.3854 32.3848 56.9453 32.0487 56.9453 31.6342C56.9453 31.2197 57.3854 30.8837 57.9292 30.8837H74.2885C74.8323 30.8837 75.2724 31.2197 75.2724 31.6342C75.2724 32.0487 74.8323 32.3848 74.2885 32.3848Z" fill="#D3D6DD" fill-opacity="0.8"/>
  <path d="M74.2885 35.195H57.9292C57.3854 35.195 56.9453 34.8589 56.9453 34.4444C56.9453 34.0299 57.3854 33.6939 57.9292 33.6939H74.2885C74.8323 33.6939 75.2724 34.0299 75.2724 34.4444C75.2724 34.8589 74.8323 35.195 74.2885 35.195Z" fill="#D3D6DD" fill-opacity="0.8"/>
  <path d="M77.8906 29.2034V36.8752C77.8906 37.4679 78.3811 37.9484 78.9861 37.9484H87.2679C87.8729 37.9484 88.3634 37.4679 88.3634 36.8752V29.2034C88.3634 28.6107 87.8729 28.1302 87.2679 28.1302H78.9861C78.3811 28.1302 77.8906 28.6107 77.8906 29.2034Z" fill="url(#paint1_linear_27450_72198)"/>
  <rect x="39.9297" y="46.131" width="5.23636" height="1.30909" rx="0.654545" fill="#D3D6DD" fill-opacity="0.8"/>
  <path d="M74.2885 46.131H57.9292C57.3854 46.131 56.9453 45.795 56.9453 45.3805C56.9453 44.966 57.3854 44.6299 57.9292 44.6299H74.2885C74.8323 44.6299 75.2724 44.966 75.2724 45.3805C75.2724 45.795 74.8323 46.131 74.2885 46.131Z" fill="#D3D6DD" fill-opacity="0.8"/>
  <path d="M74.2885 48.9412H57.9292C57.3854 48.9412 56.9453 48.6052 56.9453 48.1907C56.9453 47.7762 57.3854 47.4401 57.9292 47.4401H74.2885C74.8323 47.4401 75.2724 47.7762 75.2724 48.1907C75.2724 48.6052 74.8323 48.9412 74.2885 48.9412Z" fill="#D3D6DD" fill-opacity="0.8"/>
  <path d="M77.8906 42.9497V50.6215C77.8906 51.2142 78.3811 51.6947 78.9861 51.6947H87.2679C87.8729 51.6947 88.3634 51.2142 88.3634 50.6215V42.9497C88.3634 42.357 87.8729 41.8765 87.2679 41.8765H78.9861C78.3811 41.8765 77.8906 42.357 77.8906 42.9497Z" fill="url(#paint2_linear_27450_72198)"/>
  <rect x="39.9297" y="61.8391" width="5.23636" height="1.30909" rx="0.654545" fill="#D3D6DD" fill-opacity="0.8"/>
  <path d="M74.2885 61.839H57.9292C57.3854 61.839 56.9453 61.5029 56.9453 61.0884C56.9453 60.6739 57.3854 60.3379 57.9292 60.3379H74.2885C74.8323 60.3379 75.2724 60.6739 75.2724 61.0884C75.2724 61.5029 74.8323 61.839 74.2885 61.839Z" fill="#D3D6DD" fill-opacity="0.8"/>
  <path d="M74.2885 64.6493H57.9292C57.3854 64.6493 56.9453 64.3132 56.9453 63.8988C56.9453 63.4843 57.3854 63.1482 57.9292 63.1482H74.2885C74.8323 63.1482 75.2724 63.4843 75.2724 63.8988C75.2724 64.3132 74.8323 64.6493 74.2885 64.6493Z" fill="#D3D6DD" fill-opacity="0.8"/>
  <path opacity="0.7" d="M77.8906 58.6577V66.3296C77.8906 66.9223 78.3811 67.4028 78.9861 67.4028H87.2679C87.8729 67.4028 88.3634 66.9223 88.3634 66.3296V58.6577C88.3634 58.065 87.8729 57.5846 87.2679 57.5846H78.9861C78.3811 57.5846 77.8906 58.065 77.8906 58.6577Z" fill="url(#paint3_linear_27450_72198)"/>
  <path d="M109.991 92.6993C108.619 93.9499 106.494 93.8322 105.256 92.459L97.578 83.967C97.3651 83.7322 97.2613 83.4373 97.2777 83.126C97.2886 82.8092 97.4251 82.5253 97.66 82.3177L97.6709 82.3068L94.7383 79.0684C95.0048 78.8677 95.6327 78.4624 96.4421 77.7195C97.3185 76.9272 97.7076 76.4288 97.9604 76.1576L100.888 79.396L100.898 79.3851C101.379 78.9537 102.116 78.9919 102.548 79.467L110.231 87.9645C111.463 89.3307 111.384 91.4439 109.991 92.6993Z" fill="#989FB0"/>
  <path d="M98.3999 54.3177C92.0596 47.3165 81.2028 46.7759 74.1908 53.1108C70.7995 56.1799 68.8007 60.385 68.5768 64.956C68.3473 69.5269 69.9093 73.9122 72.9784 77.309C76.3589 81.0499 81.0009 82.9831 85.6864 82.9831C89.9873 82.9831 94.0765 81.3537 97.1821 78.5268C100.611 75.4794 102.851 70.8556 102.851 65.8188C102.851 61.7121 101.371 57.5998 98.3999 54.3177ZM85.0912 77.7022C81.9183 77.5438 78.9911 76.1567 76.8613 73.7975C72.4596 68.9316 72.8364 61.3898 77.7023 56.9936C80.129 54.7952 83.2193 53.7683 86.2872 53.93C92.7299 54.2515 97.5862 59.5767 97.5862 65.8134C97.5862 69.0627 96.2647 72.3011 93.6706 74.644C91.3114 76.7793 88.2641 77.866 85.0912 77.7022Z" fill="#ADB2BB"/>
  <path d="M106.961 37.6501C106.756 37.6501 106.552 37.5664 106.404 37.4018C106.127 37.0937 106.152 36.6191 106.459 36.3418L111.275 32.0061C111.583 31.7286 112.057 31.7536 112.335 32.0617C112.612 32.3697 112.587 32.8443 112.279 33.1216L107.464 37.4574C107.32 37.5866 107.14 37.6501 106.961 37.6501ZM102.748 35.64C102.734 35.64 102.721 35.6396 102.707 35.639C102.294 35.6173 101.976 35.2641 101.997 34.8501L102.336 28.3794C102.358 27.9656 102.684 27.6497 103.126 27.6692C103.539 27.6909 103.857 28.0441 103.836 28.458L103.497 34.9288C103.475 35.3293 103.144 35.64 102.748 35.64ZM114.992 42.3906C114.979 42.3906 114.965 42.3903 114.951 42.3896L108.48 42.0505C108.067 42.0288 107.749 41.6756 107.77 41.2617C107.792 40.8478 108.124 40.5304 108.559 40.5515L115.031 40.8905C115.444 40.9123 115.762 41.2655 115.741 41.6794C115.72 42.08 115.388 42.3906 114.992 42.3906Z" fill="#989FB0"/>
  <path d="M115.801 11.5914C117.09 11.0789 118.558 11.7259 119.07 13.0149C119.583 14.3038 118.953 15.7645 117.664 16.2769C116.375 16.7894 114.897 16.1666 114.385 14.8777C113.872 13.5887 114.512 12.1038 115.801 11.5914ZM111.038 7.6509C111.858 7.32472 112.792 7.73653 113.118 8.55691C113.444 9.3773 113.044 10.307 112.223 10.6331C111.403 10.9593 110.462 10.5629 110.136 9.74254C109.81 8.92216 110.217 7.97705 111.038 7.6509Z" fill="#D3D6DD" fill-opacity="0.8"/>
  <circle cx="16.3653" cy="13.7281" r="5.23636" fill="#F4F6F8"/>
  <circle cx="128.947" cy="83.1095" r="3.92727" fill="#F4F6F8"/>
  <ellipse cx="15.7095" cy="90.9637" rx="6.54545" ry="6.54545" fill="#F4F6F8"/>
  <ellipse cx="136.799" cy="30.7455" rx="6.54545" ry="6.54545" fill="#F4F6F8"/>
  <circle cx="124.363" cy="7.83749" r="4.58182" fill="#F4F6F8"/>
  <defs>
    <linearGradient id="paint0_linear_27450_72198" x1="64.2778" y1="16.861" x2="64.5472" y2="7.80258" gradientUnits="userSpaceOnUse">
      <stop stop-color="#DCE1E7"/>
      <stop offset="1" stop-color="#ACB1BA"/>
    </linearGradient>
    <linearGradient id="paint1_linear_27450_72198" x1="77.8904" y1="33.0396" x2="88.363" y2="33.0396" gradientUnits="userSpaceOnUse">
      <stop stop-color="#ADB2BB"/>
      <stop offset="1" stop-color="#CBD0D7"/>
    </linearGradient>
    <linearGradient id="paint2_linear_27450_72198" x1="77.8904" y1="46.7859" x2="88.363" y2="46.7859" gradientUnits="userSpaceOnUse">
      <stop stop-color="#ADB2BB"/>
      <stop offset="1" stop-color="#CBD0D7"/>
    </linearGradient>
    <linearGradient id="paint3_linear_27450_72198" x1="77.8904" y1="62.4939" x2="88.363" y2="62.4939" gradientUnits="userSpaceOnUse">
      <stop stop-color="#ADB2BB"/>
      <stop offset="1" stop-color="#CBD0D7"/>
    </linearGradient>
  </defs>
</svg>
